<?xml version="1.0" encoding="utf-8"?>
<!-- Generator: Adobe Illustrator 18.1.1, SVG Export Plug-In . SVG Version: 6.00 Build 0)  -->
<svg version="1.1" id="Layer_1" xmlns="http://www.w3.org/2000/svg" xmlns:xlink="http://www.w3.org/1999/xlink" x="0px" y="0px"
	 viewBox="0 0 26.2 33.1" enable-background="new 0 0 26.2 33.1" xml:space="preserve">
<path fill="#FFFFFF" d="M25.3,16c-1.1-0.9-2.8-0.8-3.7,0.4l-5.7,6.9V2.7c0-1.5-1.2-2.7-2.7-2.7s-2.7,1.2-2.7,2.7v20.6l-5.7-6.9
	C3.8,15.2,2.1,15.1,1,16s-1.3,2.6-0.4,3.7L11,32.2c0.5,0.6,1.2,0.9,1.9,1c0.1,0,0.1,0,0.2,0c0.1,0,0.1,0,0.2,0c0.7,0,1.4-0.4,1.9-1
	l10.4-12.4C26.6,18.6,26.4,16.9,25.3,16z"/>
</svg>
