<?xml version="1.0" encoding="utf-8"?>
<!-- Generator: Adobe Illustrator 18.1.1, SVG Export Plug-In . SVG Version: 6.00 Build 0)  -->
<svg version="1.1" id="Layer_1" xmlns="http://www.w3.org/2000/svg" xmlns:xlink="http://www.w3.org/1999/xlink" x="0px" y="0px"
	 viewBox="0 0 33.1 26.2" enable-background="new 0 0 33.1 26.2" xml:space="preserve">
<path fill="#D39855" d="M16,1c-0.9,1.1-0.8,2.8,0.4,3.7l6.9,5.7H2.7c-1.5,0-2.7,1.2-2.7,2.7c0,1.5,1.2,2.7,2.7,2.7h20.6l-6.9,5.7
	c-1.1,0.9-1.3,2.6-0.4,3.7s2.6,1.3,3.7,0.4l12.4-10.4c0.6-0.5,0.9-1.2,1-1.9c0-0.1,0-0.1,0-0.2c0-0.1,0-0.1,0-0.2
	c0-0.7-0.4-1.4-1-1.9L19.7,0.6C18.6-0.3,16.9-0.2,16,1z"/>
</svg>
